# xmcd
#
# Track frame offsets:
# 182
# 10930
# 22777
# 33907
# 43932
# 56282
# 68377
# 78457
# 90812
# 101217
# 112042
# 123280
#
# Disc length: 1829 seconds
#
#
# Revision: 4
# Processed by: cddbd v1.5.1PL2 Copyright (c) Steve Scherf et al.
# Submitted via: FreeRIP 2.944 
#
DISCID=8507230c
DTITLE=Buck Owens - All-Time Greatest Hits Volume 1
DYEAR=1990
DGENRE=
TTITLE0=Act Naturally
TTITLE1=Streets Of Bakersfield
TTITLE2=Together Again
TTITLE3=Before You Go
TTITLE4=Made In Japan
TTITLE5=Foolin' Around
TTITLE6=I've Got A Tiger By The Tail
TTITLE7=Under Your Spell Again
TTITLE8=Think Of Me
TTITLE9=Who's Gonna Mow Your Grass
TTITLE10=Excuse Me (I Think I've Got A Heartache)
TTITLE11=Big In Vegas
EXTD=
EXTT0=
EXTT1=
EXTT2=
EXTT3=
EXTT4=
EXTT5=
EXTT6=
EXTT7=
EXTT8=
EXTT9=
EXTT10=
EXTT11=
PLAYORDER=
